<svg width="136" height="64" viewBox="0 0 136 64" fill="none" xmlns="http://www.w3.org/2000/svg">
<path d="M58.4293 33.8398C56.8839 33.8398 55.4991 33.5867 54.2751 33.0805C53.051 32.5743 52.0676 31.8251 51.3251 30.8329C50.6026 29.8407 50.2213 28.646 50.1812 27.2489H55.6599C55.74 28.0386 56.0109 28.646 56.4726 29.0713C56.9344 29.4763 57.5364 29.6787 58.2788 29.6787C59.0416 29.6787 59.6436 29.5066 60.085 29.1624C60.5263 28.7979 60.7472 28.3018 60.7472 27.6741C60.7472 27.1476 60.5666 26.7123 60.2054 26.3681C59.864 26.0238 59.4329 25.7404 58.911 25.5176C58.4094 25.2949 57.687 25.0418 56.7436 24.7583C55.3787 24.3331 54.2649 23.9079 53.4022 23.4827C52.5392 23.0574 51.7966 22.4297 51.1745 21.5995C50.5524 20.7693 50.2414 19.686 50.2414 18.3496C50.2414 16.3653 50.9538 14.8162 52.3787 13.7026C53.8037 12.5687 55.6599 12.0017 57.9477 12.0017C60.2758 12.0017 62.1518 12.5687 63.5769 13.7026C65.0019 14.8162 65.7642 16.3754 65.8647 18.38H60.2957C60.2554 17.6916 60.0049 17.155 59.5431 16.7703C59.0814 16.3653 58.4895 16.1628 57.767 16.1628C57.1451 16.1628 56.643 16.3349 56.2619 16.6791C55.8808 17.0031 55.69 17.479 55.69 18.1067C55.69 18.7951 56.0109 19.3317 56.6532 19.7164C57.2956 20.1011 58.2987 20.5163 59.6635 20.9617C61.0284 21.4274 62.132 21.8729 62.9748 22.2981C63.8376 22.7233 64.5805 23.3409 65.2024 24.1509C65.8244 24.9608 66.1356 26.0036 66.1356 27.2793C66.1356 28.4942 65.8244 29.5977 65.2024 30.5899C64.6004 31.5821 63.7172 32.3718 62.5534 32.959C61.3896 33.5462 60.0145 33.8398 58.4293 33.8398Z" fill="#252739"/>
<path d="M77.4327 16.4665V20.7795H84.3263V24.7887H77.4327V29.4661H85.2293V33.6272H72.2852V12.3054H85.2293V16.4665H77.4327Z" fill="#56C6E7"/>
<path d="M5.33265 57.0706C4.49551 57.0706 3.73864 56.9258 3.06204 56.6367C2.39692 56.3476 1.8694 55.9311 1.4795 55.3871C1.0896 54.8431 0.888907 54.201 0.877441 53.4605H3.45768C3.49208 53.9581 3.6641 54.3517 3.97373 54.6408C4.29482 54.9298 4.7306 55.0746 5.28105 55.0746C5.84295 55.0746 6.28449 54.9418 6.60557 54.6755C6.92665 54.3978 7.08721 54.0391 7.08721 53.5994C7.08721 53.2407 6.97825 52.9457 6.76038 52.7142C6.54251 52.4828 6.26729 52.3035 5.93471 52.1762C5.61363 52.0374 5.16637 51.887 4.59298 51.725C3.81318 51.4935 3.17672 51.2679 2.68361 51.0481C2.20196 50.8166 1.78339 50.4753 1.42789 50.0241C1.08386 49.5613 0.911845 48.948 0.911845 48.1843C0.911845 47.4669 1.0896 46.8421 1.44509 46.3099C1.80059 45.7777 2.29944 45.3727 2.94163 45.095C3.58383 44.8057 4.31776 44.6611 5.14343 44.6611C6.38195 44.6611 7.38539 44.9677 8.15371 45.581C8.93353 46.1826 9.36357 47.0273 9.44383 48.1149H6.79479C6.77183 47.6984 6.59412 47.3571 6.26154 47.0909C5.94046 46.8132 5.51042 46.6744 4.97142 46.6744C4.50124 46.6744 4.1228 46.7959 3.83611 47.0389C3.56089 47.2818 3.42328 47.6348 3.42328 48.0976C3.42328 48.4215 3.52648 48.6935 3.7329 48.9133C3.95079 49.1216 4.21455 49.2951 4.52418 49.434C4.84527 49.5613 5.29251 49.7117 5.8659 49.8852C6.64572 50.1167 7.28218 50.348 7.77528 50.5795C8.26837 50.8109 8.69271 51.158 9.04819 51.6208C9.40367 52.0836 9.58144 52.6911 9.58144 53.4432C9.58144 54.0912 9.41518 54.6928 9.0826 55.2482C8.75001 55.8036 8.26267 56.2489 7.62046 56.5846C6.97825 56.9084 6.21568 57.0706 5.33265 57.0706ZM12.8906 46.1884C12.4663 46.1884 12.1108 46.0554 11.8241 45.7892C11.5489 45.5115 11.4113 45.1702 11.4113 44.7652C11.4113 44.3602 11.5489 44.0247 11.8241 43.7586C12.1108 43.4809 12.4663 43.342 12.8906 43.342C13.3149 43.342 13.6647 43.4809 13.9399 43.7586C14.2266 44.0247 14.3699 44.3602 14.3699 44.7652C14.3699 45.1702 14.2266 45.5115 13.9399 45.7892C13.6647 46.0554 13.3149 46.1884 12.8906 46.1884ZM14.0775 47.3339V56.9491H11.6693V47.3339H14.0775ZM21.7377 47.1951C22.8731 47.1951 23.7904 47.5595 24.49 48.2885C25.1895 49.0059 25.5393 50.0125 25.5393 51.3084V56.9491H23.1311V51.6382C23.1311 50.8745 22.9419 50.2902 22.5634 49.8852C22.185 49.4687 21.6689 49.2604 21.0153 49.2604C20.3501 49.2604 19.8226 49.4687 19.4327 49.8852C19.0543 50.2902 18.8651 50.8745 18.8651 51.6382V56.9491H16.4569V47.3339H18.8651V48.5315C19.1862 48.1149 19.5932 47.791 20.0864 47.5595C20.5909 47.3166 21.1414 47.1951 21.7377 47.1951ZM27.2101 52.1068C27.2101 51.1349 27.3993 50.2729 27.7778 49.5208C28.1676 48.7686 28.6894 48.1901 29.3431 47.7852C30.0082 47.3802 30.7479 47.1777 31.5621 47.1777C32.2731 47.1777 32.8924 47.3223 33.4199 47.6116C33.9589 47.9008 34.3889 48.2653 34.71 48.705V47.3339H37.1354V56.9491H34.71V55.5433C34.4004 55.9945 33.9703 56.3704 33.4199 56.6714C32.8809 56.9605 32.2559 57.1053 31.5449 57.1053C30.7422 57.1053 30.0082 56.897 29.3431 56.4805C28.6894 56.0639 28.1676 55.4798 27.7778 54.7275C27.3993 53.9639 27.2101 53.0903 27.2101 52.1068ZM34.71 52.1415C34.71 51.5514 34.5953 51.0481 34.366 50.6315C34.1366 50.2034 33.827 49.8794 33.4371 49.6596C33.0472 49.4282 32.6286 49.3125 32.1814 49.3125C31.7341 49.3125 31.3213 49.4224 30.9429 49.6422C30.5644 49.8621 30.2548 50.1861 30.014 50.6142C29.7846 51.0307 29.6699 51.5282 29.6699 52.1068C29.6699 52.6853 29.7846 53.1944 30.014 53.6341C30.2548 54.0622 30.5644 54.3918 30.9429 54.6234C31.3327 54.855 31.7456 54.9705 32.1814 54.9705C32.6286 54.9705 33.0472 54.8604 33.4371 54.6408C33.827 54.4092 34.1366 54.0854 34.366 53.6688C34.5953 53.2407 34.71 52.7316 34.71 52.1415ZM41.8957 48.8265C42.2053 48.3174 42.6067 47.9182 43.0998 47.629C43.6044 47.3397 44.1777 47.1951 44.82 47.1951V49.7464H44.1835C43.4266 49.7464 42.8532 49.9257 42.4633 50.2844C42.0849 50.6431 41.8957 51.2679 41.8957 52.1589V56.9491H39.4875V47.3339H41.8957V48.8265ZM52.6133 46.1363V50.1803H56.9825V51.482H52.6133V55.6474H57.4986V56.9491H51.048V44.8347H57.4986V46.1363H52.6133ZM59.2822 52.1589C59.2822 51.1869 59.4773 50.3365 59.867 49.6075C60.2573 48.867 60.7906 48.2943 61.4668 47.8893C62.1549 47.4843 62.9235 47.2818 63.7718 47.2818C64.5061 47.2818 65.1882 47.4554 65.8188 47.8025C66.4499 48.1381 66.9315 48.5835 67.2637 49.1389V44.1057H68.8463V56.9491H67.2637V55.1614C66.9541 55.7282 66.4956 56.1968 65.8876 56.5673C65.2802 56.9258 64.569 57.1053 63.7546 57.1053C62.9176 57.1053 62.1549 56.897 61.4668 56.4805C60.7906 56.0639 60.2573 55.4798 59.867 54.7275C59.4773 53.9754 59.2822 53.1192 59.2822 52.1589ZM67.2637 52.1762C67.2637 51.4588 67.1207 50.834 66.8337 50.3018C66.5472 49.7695 66.1574 49.3645 65.664 49.0869C65.1823 48.7976 64.6491 48.653 64.0642 48.653C63.4794 48.653 62.9461 48.7918 62.4645 49.0695C61.9828 49.3472 61.599 49.7522 61.312 50.2844C61.0255 50.8166 60.8819 51.4415 60.8819 52.1589C60.8819 52.8878 61.0255 53.5242 61.312 54.068C61.599 54.6001 61.9828 55.0112 62.4645 55.3003C62.9461 55.578 63.4794 55.7168 64.0642 55.7168C64.6491 55.7168 65.1823 55.578 65.664 55.3003C66.1574 55.0112 66.5472 54.6001 66.8337 54.068C67.1207 53.5242 67.2637 52.8936 67.2637 52.1762ZM79.8515 47.438V56.9491H78.2862V55.5433C77.9884 56.0292 77.5696 56.4111 77.0305 56.6887C76.5031 56.9551 75.9183 57.0879 75.2759 57.0879C74.5421 57.0879 73.8826 56.9377 73.2977 56.6367C72.7129 56.3243 72.2484 55.8616 71.9044 55.2482C71.5722 54.6348 71.4055 53.8886 71.4055 53.0093V47.438H72.9537V52.801C72.9537 53.7382 73.1891 54.4612 73.6589 54.9705C74.1293 55.4679 74.7717 55.7168 75.5855 55.7168C76.423 55.7168 77.0821 55.4565 77.5637 54.9358C78.0453 54.4151 78.2862 53.6573 78.2862 52.6622V47.438H79.8515ZM81.9098 52.1762C81.9098 51.1927 82.1049 50.3365 82.4946 49.6075C82.8844 48.867 83.4235 48.2943 84.1116 47.8893C84.8109 47.4843 85.6081 47.2818 86.5026 47.2818C87.661 47.2818 88.6125 47.5653 89.3581 48.1323C90.1149 48.6992 90.6138 49.486 90.8546 50.4927H89.1689C89.0081 49.9141 88.6931 49.4571 88.2228 49.1216C87.7642 48.786 87.1907 48.6182 86.5026 48.6182C85.6081 48.6182 84.8857 48.9306 84.3352 49.5555C83.7848 50.1687 83.5095 51.0423 83.5095 52.1762C83.5095 53.3217 83.7848 54.2069 84.3352 54.8317C84.8857 55.4565 85.6081 55.7689 86.5026 55.7689C87.1907 55.7689 87.7642 55.6067 88.2228 55.2829C88.6813 54.9591 88.9968 54.4959 89.1689 53.8944H90.8546C90.6025 54.8664 90.0977 55.6474 89.3409 56.2375C88.584 56.8162 87.6379 57.1053 86.5026 57.1053C85.6081 57.1053 84.8109 56.903 84.1116 56.4978C83.4235 56.0927 82.8844 55.5199 82.4946 54.7796C82.1049 54.0391 81.9098 53.1713 81.9098 52.1762ZM92.3587 52.1589C92.3587 51.1869 92.5533 50.3365 92.9435 49.6075C93.3333 48.867 93.8665 48.2943 94.5433 47.8893C95.2313 47.4843 95.9936 47.2818 96.8311 47.2818C97.6568 47.2818 98.3733 47.4612 98.9813 47.8199C99.5887 48.1785 100.042 48.6298 100.34 49.1736V47.438H101.923V56.9491H100.34V55.1788C100.031 55.7342 99.5661 56.1968 98.9469 56.5673C98.3389 56.9258 97.6277 57.1053 96.8139 57.1053C95.9764 57.1053 95.2195 56.897 94.5433 56.4805C93.8665 56.0639 93.3333 55.4798 92.9435 54.7275C92.5533 53.9754 92.3587 53.1192 92.3587 52.1589ZM100.34 52.1762C100.34 51.4588 100.197 50.834 99.9102 50.3018C99.6231 49.7695 99.2334 49.3645 98.7405 49.0869C98.2588 48.7976 97.7256 48.653 97.1407 48.653C96.5559 48.653 96.0226 48.7918 95.541 49.0695C95.0593 49.3472 94.675 49.7522 94.3885 50.2844C94.1014 50.8166 93.9584 51.4415 93.9584 52.1589C93.9584 52.8878 94.1014 53.5242 94.3885 54.068C94.675 54.6001 95.0593 55.0112 95.541 55.3003C96.0226 55.578 96.5559 55.7168 97.1407 55.7168C97.7256 55.7168 98.2588 55.578 98.7405 55.3003C99.2334 55.0112 99.6231 54.6001 99.9102 54.068C100.197 53.5242 100.34 52.8936 100.34 52.1762ZM106.477 48.7397V54.3457C106.477 54.8083 106.575 55.1381 106.77 55.335C106.964 55.5199 107.303 55.6127 107.784 55.6127H108.937V56.9491H107.527C106.655 56.9491 106.001 56.7468 105.566 56.3416C105.13 55.9365 104.912 55.2715 104.912 54.3457V48.7397H103.691V47.438H104.912V45.0429H106.477V47.438H108.937V48.7397H106.477ZM111.642 45.8934C111.344 45.8934 111.092 45.7892 110.885 45.581C110.679 45.3727 110.576 45.1182 110.576 44.8173C110.576 44.5164 110.679 44.2619 110.885 44.0536C111.092 43.8454 111.344 43.7412 111.642 43.7412C111.929 43.7412 112.17 43.8454 112.365 44.0536C112.571 44.2619 112.674 44.5164 112.674 44.8173C112.674 45.1182 112.571 45.3727 112.365 45.581C112.17 45.7892 111.929 45.8934 111.642 45.8934ZM112.399 47.438V56.9491H110.834V47.438H112.399ZM119.178 57.1053C118.295 57.1053 117.492 56.903 116.77 56.4978C116.059 56.0927 115.497 55.5199 115.084 54.7796C114.683 54.0275 114.482 53.1597 114.482 52.1762C114.482 51.2043 114.688 50.348 115.101 49.6075C115.525 48.8554 116.099 48.2827 116.821 47.8893C117.544 47.4843 118.352 47.2818 119.247 47.2818C120.141 47.2818 120.95 47.4843 121.672 47.8893C122.395 48.2827 122.962 48.8497 123.375 49.5902C123.799 50.3307 124.012 51.1927 124.012 52.1762C124.012 53.1597 123.793 54.0275 123.358 54.7796C122.933 55.5199 122.354 56.0927 121.621 56.4978C120.886 56.903 120.073 57.1053 119.178 57.1053ZM119.178 55.7168C119.74 55.7168 120.267 55.5839 120.761 55.3176C121.254 55.0513 121.649 54.6521 121.948 54.1201C122.257 53.5878 122.412 52.9399 122.412 52.1762C122.412 51.4125 122.263 50.7646 121.965 50.2323C121.666 49.7001 121.277 49.3067 120.795 49.0521C120.313 48.786 119.791 48.653 119.23 48.653C118.656 48.653 118.129 48.786 117.647 49.0521C117.177 49.3067 116.798 49.7001 116.512 50.2323C116.225 50.7646 116.082 51.4125 116.082 52.1762C116.082 52.9514 116.219 53.6052 116.495 54.1374C116.781 54.6695 117.16 55.0687 117.63 55.335C118.1 55.5894 118.616 55.7168 119.178 55.7168ZM130.663 47.2645C131.809 47.2645 132.738 47.6174 133.449 48.3232C134.16 49.0174 134.516 50.0241 134.516 51.3431V56.9491H132.968V51.5688C132.968 50.62 132.732 49.8968 132.263 49.3993C131.792 48.8901 131.15 48.6356 130.336 48.6356C129.51 48.6356 128.851 48.8959 128.358 49.4166C127.876 49.9373 127.635 50.6952 127.635 51.6902V56.9491H126.07V47.438H127.635V48.7918C127.945 48.3058 128.363 47.9298 128.891 47.6637C129.43 47.3975 130.02 47.2645 130.663 47.2645Z" fill="url(#paint0_linear_795_13)"/>
<defs>
<linearGradient id="paint0_linear_795_13" x1="3.00012" y1="52.4999" x2="141" y2="52.4999" gradientUnits="userSpaceOnUse">
<stop stop-color="#252739"/>
<stop offset="1" stop-color="#56C6E7"/>
</linearGradient>
</defs>
</svg>
