<svg width="16" height="16" viewBox="0 0 16 16" fill="none" xmlns="http://www.w3.org/2000/svg">
<path d="M4.98682 12.2333L7.05348 13.8333C7.32015 14.1 7.92015 14.2333 8.32015 14.2333H10.8535C11.6535 14.2333 12.5202 13.6333 12.7202 12.8333L14.3202 7.96667C14.6535 7.03333 14.0535 6.23333 13.0535 6.23333H10.3868C9.98682 6.23333 9.65348 5.9 9.72015 5.43333L10.0535 3.3C10.1868 2.7 9.78682 2.03333 9.18682 1.83333C8.65348 1.63333 7.98682 1.9 7.72015 2.3L4.98682 6.36667" stroke="#0D154B" stroke-width="1.3" stroke-miterlimit="10"/>
<path d="M1.58643 12.2333V5.70002C1.58643 4.76668 1.98643 4.43335 2.91976 4.43335H3.58643C4.51976 4.43335 4.91976 4.76668 4.91976 5.70002V12.2333C4.91976 13.1667 4.51976 13.5 3.58643 13.5H2.91976C1.98643 13.5 1.58643 13.1667 1.58643 12.2333Z" stroke="#0D154B" stroke-width="1.3" stroke-linecap="round" stroke-linejoin="round"/>
</svg>
